<svg xmlns="http://www.w3.org/2000/svg" width="65" height="63" viewBox="0 0 65 63">
  <defs>
    <style>
      .cls-1 {
        fill: #1275b9;
      }

      .cls-1, .cls-2 {
        fill-rule: evenodd;
      }

      .cls-2 {
        fill: #fff;
      }
    </style>
  </defs>
  <path class="cls-1" d="M32.764,0A31.726,31.726,0,0,1,64.711,31.5,31.726,31.726,0,0,1,32.764,63,31.726,31.726,0,0,1,.816,31.5,31.726,31.726,0,0,1,32.764,0Z"/>
  <path id="Dashboard" class="cls-2" d="M36.7,28.654s-0.981,5.7-2.028,6.94a2.909,2.909,0,0,1-4.122.332,2.959,2.959,0,0,1-.33-4.151C31.27,30.538,36.7,28.654,36.7,28.654Zm6.2,12.509H22.8a1,1,0,0,1-.793-0.393,13.588,13.588,0,1,1,24.358-8.21,13.733,13.733,0,0,1-2.676,8.21A1,1,0,0,1,42.9,41.164ZM23.313,39.147h19.08a11.791,11.791,0,0,0,1.974-6.586,11.515,11.515,0,1,0-23.029.026A11.745,11.745,0,0,0,23.313,39.147Zm1.6-6.346a1,1,0,0,1-1-1.008,8.939,8.939,0,1,1,17.876-.028,1,1,0,1,1-2,0,6.937,6.937,0,1,0-13.871.028A1,1,0,0,1,24.916,32.8Z"/>
</svg>
