<svg xmlns="http://www.w3.org/2000/svg" width="66" height="65" viewBox="0 0 66 65">
  <defs>
    <style>
      .cls-1 {
        fill-opacity: 0;
        stroke: #1275b9;
        stroke-linejoin: round;
        stroke-width: 1px;
      }

      .cls-1, .cls-2 {
        fill-rule: evenodd;
      }

      .cls-2 {
        fill: #1275b9;
      }
    </style>
  </defs>
  <path class="cls-1" d="M32.764,1A31.726,31.726,0,0,1,64.711,32.5,31.726,31.726,0,0,1,32.764,64,31.726,31.726,0,0,1,.816,32.5,31.726,31.726,0,0,1,32.764,1Z"/>
  <path id="Tablet" class="cls-2" d="M39.266,47.975H26.735a4.873,4.873,0,0,1-4.772-4.958V22.944a4.873,4.873,0,0,1,4.772-4.958H39.266a4.873,4.873,0,0,1,4.772,4.958V43.017A4.874,4.874,0,0,1,39.266,47.975ZM26.735,20A2.9,2.9,0,0,0,23.9,22.944V43.017a2.9,2.9,0,0,0,2.837,2.948H39.266A2.9,2.9,0,0,0,42.1,43.017V22.944A2.9,2.9,0,0,0,39.266,20H26.735ZM33,44.818a1.006,1.006,0,1,1,.968-1.005A0.988,0.988,0,0,1,33,44.818Zm0.968-21.387H32.034a1.006,1.006,0,0,1,0-2.011h1.935A1.006,1.006,0,0,1,33.969,23.431Z"/>
</svg>
